<?xml version="1.0" encoding="UTF-8"?>
<svg width="82px" height="22px" viewBox="0 0 82 22" version="1.1" xmlns="http://www.w3.org/2000/svg" xmlns:xlink="http://www.w3.org/1999/xlink">
    <!-- Generator: Sketch 61.2 (89653) - https://sketch.com -->
    <title>Group 3</title>
    <desc>Created with Sketch.</desc>
    <g id="Symbols" stroke="none" stroke-width="1" fill="none" fill-rule="evenodd">
        <g id="Logo_Desktop">
            <g id="Group-3">
                <path d="M9.70297495,8.95933297 C9.70297495,9.37950539 9.74618773,9.7130124 9.83029832,9.96217542 C9.91595222,10.2113384 10.0371023,10.4798464 10.1937487,10.7676993 C10.2462213,10.8597813 10.2724577,10.9448991 10.2724577,11.0246003 C10.2724577,11.1414438 10.1999219,11.2528708 10.0563938,11.3573335 L9.34955614,11.8301242 C9.24538247,11.8951233 9.14815372,11.9283966 9.05632656,11.9283966 C8.93826307,11.9283966 8.82714449,11.8765521 8.72297082,11.7713156 C8.5663245,11.6142345 8.43205621,11.4401299 8.32093764,11.2497756 C8.20981906,11.060195 8.09561385,10.8404364 7.97832202,10.5920471 C7.10171991,11.6266153 6.00365229,12.1450601 4.68334752,12.1450601 C3.74192624,12.1450601 2.99650578,11.8765521 2.4478578,11.3387624 C1.89843816,10.8009726 1.6245,10.0797927 1.6245,9.17522267 C1.6245,8.21880811 1.96402899,7.44810512 2.64385862,6.86466129 C3.3229166,6.28121746 4.23887321,5.99026935 5.38941349,5.99026935 C5.76752531,5.99026935 6.16338525,6.01967368 6.57544997,6.07848234 C6.98674304,6.137291 7.41501256,6.21931361 7.85948687,6.32377636 L7.85948687,5.4981337 C7.85948687,4.6454081 7.68354913,4.04648831 7.33090197,3.69905293 C6.97748316,3.35161754 6.37018927,3.17828675 5.50670532,3.17828675 C5.11547532,3.17828675 4.71189882,3.22703604 4.30060575,3.32530841 C3.88854103,3.42358077 3.48727949,3.55125747 3.09450619,3.70833851 C2.91162353,3.78803972 2.78044187,3.83601521 2.70250454,3.85613396 C2.6245672,3.87547891 2.56514963,3.88553829 2.52579513,3.88553829 C2.3691488,3.88553829 2.29121147,3.76714717 2.29121147,3.53113872 L2.29121147,2.98096821 C2.29121147,2.79757804 2.3174478,2.66680615 2.3691488,2.58787874 C2.42162147,2.50895132 2.52579513,2.43079771 2.68244146,2.35187029 C3.07521477,2.15609935 3.54592541,1.98508995 4.09457339,1.84038969 C4.64322137,1.69723703 5.22582225,1.6245 5.84006105,1.6245 C7.17425564,1.6245 8.15117314,1.92937648 8.7715852,2.53835565 C9.39276892,3.14810862 9.70297495,4.06970226 9.70297495,5.30158896 L9.70297495,8.95933297 Z M5.15405816,10.669427 C5.51982348,10.669427 5.90488022,10.6005589 6.31077169,10.4635966 C6.71666317,10.3258606 7.06853866,10.0867569 7.36948481,9.74551193 C7.55313913,9.53581262 7.67969084,9.29670898 7.75222658,9.02742721 C7.82399066,8.75891924 7.85948687,8.43469781 7.85948687,8.0539891 L7.85948687,7.58274601 C7.53307605,7.50381859 7.18968878,7.44268854 6.83086837,7.39626064 C6.47127631,7.34983275 6.12094412,7.32739261 5.78064348,7.32739261 C5.03599467,7.32739261 4.48117344,7.47828325 4.11463647,7.77929074 C3.74887115,8.08029824 3.56521683,8.51285142 3.56521683,9.0769503 C3.56521683,9.60158546 3.70257174,9.99854393 3.97728156,10.2670519 C4.25199137,10.5355599 4.64322137,10.669427 5.15405816,10.669427 L5.15405816,10.669427 Z M14.154663,11.8889329 C13.9586622,11.8889329 13.8143623,11.8525644 13.7233068,11.7813749 C13.6314797,11.7094117 13.5535423,11.5616163 13.4879515,11.3387624 L10.8604601,2.6466874 C10.7940977,2.42383352 10.7616881,2.27294288 10.7616881,2.19478926 C10.7616881,2.01062529 10.8535152,1.91931711 11.0363979,1.91931711 L12.1352372,1.91931711 C12.3435845,1.91931711 12.4901993,1.95491182 12.5766248,2.02687505 C12.6615071,2.09883829 12.7363578,2.24740754 12.801177,2.46948762 L14.6840195,9.90259296 L16.4295072,2.46948762 C16.4812082,2.24740754 16.5537439,2.09883829 16.6447994,2.02687505 C16.7358549,1.95491182 16.8870997,1.91931711 17.0962187,1.91931711 L17.9982855,1.91931711 C18.2074044,1.91931711 18.3571059,1.95491182 18.448933,2.02687505 C18.5399885,2.09883829 18.6125243,2.24740754 18.6649969,2.46948762 L20.429776,10.0016391 L22.3712645,2.46948762 C22.4360837,2.24740754 22.511706,2.09883829 22.5973599,2.02687505 C22.6806989,1.95491182 22.828857,1.91931711 23.037976,1.91931711 L24.0773977,1.91931711 C24.2602803,1.91931711 24.3521075,2.01062529 24.3521075,2.19478926 C24.3521075,2.24740754 24.3451626,2.3062162 24.3320444,2.37198904 C24.3181546,2.43698809 24.2926899,2.52907008 24.2533354,2.6466874 L21.5479067,11.3387624 C21.4815442,11.5616163 21.4028352,11.7094117 21.3125514,11.7813749 C21.2207242,11.8525644 21.0771961,11.8889329 20.8811952,11.8889329 L19.9197109,11.8889329 C19.7113635,11.8889329 19.5593471,11.850243 19.4690633,11.7713156 C19.3780078,11.6923882 19.3047004,11.5414975 19.2537711,11.3186436 L17.5075117,4.08208303 L15.7828588,11.3186436 C15.7303861,11.5414975 15.6570788,11.6923882 15.5667949,11.7713156 C15.4749677,11.850243 15.3244947,11.8889329 15.1161473,11.8889329 L14.154663,11.8889329 Z M28.5483771,12.18375 C27.959603,12.18375 27.3847187,12.1179772 26.8221809,11.9872053 C26.2596431,11.8564334 25.8290586,11.7055427 25.5281124,11.5345333 C25.3452298,11.4300706 25.2302529,11.3256078 25.1847252,11.2203713 C25.1391974,11.1159085 25.1168194,11.010672 25.1168194,10.9054354 L25.1168194,10.3351461 C25.1168194,10.0991377 25.2009299,9.98152037 25.3714661,9.98152037 C25.4362853,9.98152037 25.5049627,9.99390114 25.5767268,10.0209841 C25.6484909,10.048067 25.7434047,10.0867569 25.8614682,10.1393752 C26.2403516,10.308837 26.6524164,10.4403827 27.0968907,10.5309171 C27.541365,10.6237729 27.9858393,10.669427 28.4303136,10.669427 C29.1363796,10.669427 29.6827126,10.5456192 30.0677693,10.2956824 C30.4535977,10.048067 30.6465119,9.69289365 30.6465119,9.23403133 C30.6465119,8.91986927 30.5446532,8.65755168 30.3424791,8.44785237 C30.1395334,8.23815307 29.7637366,8.04160833 29.2143169,7.85744436 L27.5868927,7.34596376 C26.763535,7.08519377 26.1655009,6.70371127 25.7927907,6.20538524 C25.4208521,5.70783301 25.2341112,5.16385289 25.2341112,4.57344487 C25.2341112,4.10142798 25.3351982,3.68589836 25.538144,3.32530841 C25.740318,2.96549225 26.008083,2.65674678 26.3422103,2.40061958 C26.6747944,2.14526618 27.0637094,1.95259043 27.5081838,1.82104474 C27.9534297,1.68949905 28.4241404,1.6245 28.9210873,1.6245 C29.1687892,1.6245 29.4211209,1.64074976 29.6757677,1.67402308 C29.9304144,1.70574881 30.171943,1.74985531 30.4011251,1.80092599 C30.6295355,1.85431806 30.8425128,1.91235292 31.0385136,1.97812577 C31.2345144,2.04467241 31.3919324,2.10967146 31.5084526,2.17544431 C31.6658705,2.26752629 31.7769891,2.35883448 31.8418083,2.45014266 C31.9081708,2.54222464 31.9405804,2.66680615 31.9405804,2.82388718 L31.9405804,3.35393894 C31.9405804,3.59072118 31.8556981,3.70833851 31.685162,3.70833851 C31.5941065,3.70833851 31.4505783,3.66268441 31.2538058,3.57137623 C30.6133307,3.28274951 29.8949182,3.13804925 29.0977967,3.13804925 C28.4557783,3.13804925 27.959603,3.2440596 27.6061842,3.4537589 C27.2543087,3.66268441 27.0775993,3.99696523 27.0775993,4.45660135 C27.0775993,4.76998961 27.1887178,5.03617619 27.4101833,5.25283968 C27.6324205,5.46795557 28.0444852,5.67533349 28.6463775,5.87187822 L30.2344472,6.38258502 C31.0446868,6.64490261 31.6234294,7.00626636 31.9699033,7.46435488 C32.3163772,7.923991 32.49,8.44785237 32.49,9.03748659 C32.49,9.52343185 32.3919996,9.95830643 32.1952271,10.3452055 C31.9992263,10.7328784 31.7283747,11.0632902 31.3819008,11.3387624 C31.0346553,11.6142345 30.6202756,11.8239338 30.1364468,11.9670865 C29.652618,12.1117868 29.1224898,12.18375 28.5483771,12.18375 L28.5483771,12.18375 Z" id="Fill-6" fill="#23293A"></path>
                <path d="M30.5926439,17.528388 C26.8865039,20.4019371 21.5156236,21.93075 16.8887613,21.93075 C10.405729,21.93075 4.56751238,19.412322 0.149905192,15.2201005 C-0.197303233,14.8902288 0.112704289,14.4406259 0.529664406,14.6955637 C5.29525504,17.6114668 11.1908231,19.3650811 17.2785958,19.3650811 C21.3854205,19.3650811 25.899905,18.4707622 30.0540058,16.6185937 C30.680221,16.3400353 31.2056837,17.0527211 30.5926439,17.528388" id="Fill-8" fill="#F59D0F"></path>
                <path d="M31.5504621,15.5478525 C31.0647128,14.9176666 28.3422944,15.2496827 27.1183967,15.3971559 C26.7477351,15.4422843 26.6905881,15.1142975 27.0247392,14.8765675 C29.1971179,13.3268903 32.7561045,13.774145 33.1696264,14.2931217 C33.5863231,14.8153218 33.0608884,18.4384881 31.0250274,20.1686789 C30.7115128,20.4338083 30.4138723,20.292782 30.5519775,19.9414251 C31.009947,18.7793687 32.0362114,16.1788443 31.5504621,15.5478525" id="Fill-10" fill="#F59D0F"></path>
                <path d="M39.3936919,2.12137809 C39.0168749,2.12137809 38.7188862,2.02767208 38.5014585,1.84026006 C38.2840308,1.65284804 38.17575,1.39377848 38.17575,1.06068905 C38.17575,0.727599612 38.2840308,0.467742608 38.5014585,0.280330587 C38.7188862,0.0929185652 39.0168749,-3.56159546e-13 39.3936919,-3.56159546e-13 C39.7713751,-3.56159546e-13 40.0684975,0.0929185652 40.2867915,0.280330587 C40.503353,0.467742608 40.6125,0.727599612 40.6125,1.06068905 C40.6125,1.39377848 40.503353,1.65284804 40.2867915,1.84026006 C40.0684975,2.02767208 39.7713751,2.12137809 39.3936919,2.12137809 L39.3936919,2.12137809 Z M38.7595998,11.3715 C38.5075222,11.3715 38.3819165,11.2573204 38.3819165,11.0281738 L38.3819165,3.77501357 C38.3819165,3.54665439 38.5075222,3.43168735 38.7595998,3.43168735 L40.0286502,3.43168735 C40.2807278,3.43168735 40.4071997,3.54665439 40.4071997,3.77501357 L40.4071997,11.0281738 C40.4071997,11.2573204 40.2807278,11.3715 40.0286502,11.3715 L38.7595998,11.3715 Z" id="Fill-12" fill="#23293A"></path>
                <path d="M44.8299898,11.3715 C44.0317347,11.3715 43.2931765,11.2406514 42.6166113,10.9797151 C42.4543581,10.919616 42.3510364,10.8572348 42.3058811,10.7910497 C42.2599604,10.7263862 42.237,10.6175993 42.237,10.4677321 L42.237,9.92531919 C42.237,9.72372113 42.3081771,9.62330247 42.449766,9.62330247 C42.5201777,9.62330247 42.6617666,9.65373237 42.8737673,9.71383141 C43.5916611,9.91542947 44.2391432,10.0158481 44.8146829,10.0158481 C45.3198107,10.0158481 45.6887072,9.93749115 45.9221375,9.78153793 C46.1540371,9.62558471 46.2703696,9.38747078 46.2703696,9.06567463 C46.2703696,8.84505788 46.1991925,8.66628224 46.0583689,8.5308692 C45.9160147,8.39545617 45.6542666,8.25776089 45.269298,8.11626187 L44.0110703,7.63394802 C42.8791247,7.20260424 42.3135345,6.4989129 42.3135345,5.52439548 C42.3135345,4.82146488 42.576048,4.26611928 43.1018402,3.85911942 C43.626867,3.4528803 44.329454,3.249 45.2088357,3.249 C45.8356535,3.249 46.4670633,3.35474389 47.1045959,3.56547092 C47.2561343,3.61568025 47.3563945,3.67349705 47.4076726,3.73892133 C47.4581854,3.8043456 47.4826765,3.91693622 47.4826765,4.07745392 L47.4826765,4.60541262 C47.4826765,4.71572099 47.4650735,4.79407797 47.430633,4.83896207 C47.3946618,4.88384616 47.3319035,4.90666859 47.2408274,4.90666859 C47.1895492,4.90666859 47.0632673,4.88156392 46.8612161,4.83059385 C46.2252142,4.68072661 45.7093715,4.60541262 45.3152187,4.60541262 C44.8498887,4.60541262 44.5093101,4.67311913 44.2911867,4.80853217 C44.0738286,4.94394521 43.965915,5.15771523 43.965915,5.44908148 C43.965915,5.67045898 44.0439802,5.84847387 44.200876,5.98464765 C44.3577717,6.12006069 44.6378881,6.26840643 45.0427558,6.42892414 L46.2099073,6.88080809 C46.8160607,7.1120753 47.2530729,7.38822661 47.5209437,7.71002276 C47.7888146,8.03181891 47.92275,8.43805802 47.92275,8.93026159 C47.92275,9.68340152 47.6502871,10.2790667 47.1045959,10.7164965 C46.5581394,11.1531655 45.8004476,11.3715 44.8299898,11.3715" id="Fill-14" fill="#23293A"></path>
                <path d="M53.1498802,11.3715 C52.9146675,11.3715 52.79625,11.2590184 52.79625,11.0332795 L52.79625,0.338220479 C52.79625,0.112481581 52.9146675,-3.56159546e-13 53.1498802,-3.56159546e-13 L54.3389212,-3.56159546e-13 C54.5741339,-3.56159546e-13 54.6917403,0.112481581 54.6917403,0.338220479 L54.6917403,4.31851699 C55.6885557,3.65216058 56.6951041,3.31937025 57.7130075,3.31937025 C58.4948871,3.31937025 59.0894076,3.51640695 59.496569,3.91125609 C59.9037304,4.30532949 60.1065,4.87704622 60.1065,5.6248548 L60.1065,11.0332795 C60.1065,11.2590184 59.9888936,11.3715 59.7528698,11.3715 L58.5646399,11.3715 C58.3286161,11.3715 58.2110097,11.2590184 58.2110097,11.0332795 L58.2110097,6.19346859 C58.2110097,5.69079228 58.1039473,5.32464534 57.8898226,5.09347629 C57.6756979,4.86385872 57.3326117,4.7482742 56.8613752,4.7482742 C56.1549258,4.7482742 55.4314439,4.9740131 54.6917403,5.42393942 L54.6917403,11.0332795 C54.6917403,11.2590184 54.5741339,11.3715 54.3389212,11.3715 L53.1498802,11.3715 Z" id="Fill-16" fill="#23293A"></path>
                <path d="M65.386125,11.3715 C64.2370071,11.3715 63.3406651,11.0124272 62.696349,10.2942817 C62.052783,9.57613613 61.731,8.57879629 61.731,7.3030229 C61.731,6.02648876 62.052783,5.03219191 62.696349,4.31861085 C63.3406651,3.60579053 64.2370071,3.249 65.386125,3.249 C66.5352429,3.249 67.4315849,3.60579053 68.075901,4.31861085 C68.719467,5.03219191 69.04125,6.02648876 69.04125,7.3030229 C69.04125,8.57879629 68.719467,9.57613613 68.075901,10.2942817 C67.4315849,11.0124272 66.5352429,11.3715 65.386125,11.3715 M65.386125,9.97020329 C66.6342531,9.97020329 67.2583171,9.08088958 67.2583171,7.3030229 C67.2583171,5.53504594 66.6342531,4.65029671 65.386125,4.65029671 C64.1379969,4.65029671 63.5139329,5.53504594 63.5139329,7.3030229 C63.5139329,9.08088958 64.1379969,9.97020329 65.386125,9.97020329" id="Fill-18" fill="#23293A"></path>
                <path d="M73.4067407,11.3715 C73.1756003,11.3715 73.0303772,11.2595266 72.9703111,11.0363855 L70.7410227,3.79114445 C70.6900806,3.63164281 70.66575,3.52530839 70.66575,3.47214118 C70.66575,3.32391744 70.7607913,3.249 70.9516342,3.249 L72.171204,3.249 C72.3825758,3.249 72.5125923,3.35050104 72.5635344,3.55269756 L73.9937157,9.44056352 L75.4550706,3.56800327 C75.4854838,3.44072419 75.5333846,3.35533442 75.598773,3.31263954 C75.6634011,3.26994466 75.7569217,3.249 75.8770539,3.249 L76.8715659,3.249 C77.0008221,3.249 77.0966237,3.27236135 77.1574501,3.32069518 C77.2167559,3.36822345 77.2623757,3.45119652 77.2927889,3.56800327 L78.7533834,9.55173133 L80.2603581,3.55269756 C80.3097796,3.35050104 80.4405564,3.249 80.6519282,3.249 L81.7506055,3.249 C81.9414484,3.249 82.03725,3.32391744 82.03725,3.47214118 C82.03725,3.52530839 82.0113988,3.63164281 81.961217,3.79114445 L79.687069,11.0363855 C79.6171186,11.2595266 79.4718956,11.3715 79.2506394,11.3715 L78.1960613,11.3715 C78.0759291,11.3715 77.9808878,11.3481386 77.9101771,11.2998048 C77.8394664,11.251471 77.7892846,11.1636645 77.7596317,11.0363855 L76.3286901,5.27499301 L74.8977485,11.0363855 C74.8673353,11.1636645 74.8171535,11.251471 74.7472031,11.2998048 C74.6772527,11.3481386 74.5814511,11.3715 74.4613189,11.3715 L73.4067407,11.3715 Z" id="Fill-20" fill="#23293A"></path>
            </g>
        </g>
    </g>
</svg>