<svg xmlns="http://www.w3.org/2000/svg" width="51" height="51"><path d="M18.922 38.5c-6.297-.007-12.178-3.166-15.693-8.43a19.196 19.196 0 0 1-1.833-17.82l.7.285c-3.384 8.377-.194 18 7.5 22.63s17.62 2.927 23.346-4.04 5.55-17.1-.416-23.858-15.934-8.122-23.473-3.2l-.405-.63a18.814 18.814 0 0 1 21.949 1.001c6.356 5.016 8.853 13.54 6.22 21.23S26.996 38.503 18.922 38.5zM3.075 10.46l-.648-.375a19.07 19.07 0 0 1 4.15-5.1l.496.577a18.347 18.347 0 0 0-3.998 4.898z" fill="#232f3e"/><path fill="#f59d0f" d="M18.904 35.145c-6.784-.013-12.78-4.445-14.827-10.96S4.4 10.57 9.94 6.627a15.491 15.491 0 0 1 18.388.298c5.412 4.12 7.555 11.294 5.3 17.74l-1.05-.375c2.55-7.25-.91-15.252-7.917-18.308s-15.167-.12-18.67 6.716-1.147 15.235 5.385 19.218 15.012 2.187 19.4-4.11l.915.645a15.497 15.497 0 0 1-12.79 6.694z"/><g fill="#232f3e"><path d="M45.688 50.903a4.948 4.948 0 0 1-3.53-1.46l-13.866-13.96.53-.533 13.863 13.96a4.41 4.41 0 0 0 6.17-.092 4.49 4.49 0 0 0 .102-6.215L34.91 28.4l.528-.528 14.046 14.212a5.183 5.183 0 0 1-.097 7.275 5.193 5.193 0 0 1-3.7 1.553zM19.157 30.42h-.466c-5.792-.255-6.5-4.943-6.548-8.445h.745c.07 6.6 3.153 7.58 5.833 7.695 4.2.176 6.27-2.205 6.563-7.5l.745.045c-.306 5.535-2.558 8.205-6.872 8.205z"/><path d="M25.936 22.676a.74.74 0 0 1-.347-.09c-.927-.46-1.816-3.3-2.136-4.413-3.682.54-7.632-1.778-7.818-1.875l-.067-.053a2.772 2.772 0 0 0-.275-.24 5.95 5.95 0 0 0-.09.578c-.108.817-.264 2.055-1.195 2.835a2.888 2.888 0 0 0-1.057 2.25c0 .258-.026.446-.182.58a.478.478 0 0 1-.306.098 1.487 1.487 0 0 1-1.046-.634c-.904-1.203-.97-3.948-.744-5.148.495-2.648 1.612-4.7 3.328-6.105a3.63 3.63 0 0 0 .037-.574c0-.5.026-.953.372-1.155s.77 0 1.2.244a3.95 3.95 0 0 0 .42.202c.01-.188.01-.377 0-.566 0-.525 0-1.02.276-1.305a.638.638 0 0 1 .48-.18c.35.034.658.245.82.56.27.375.6.828 1.723.888 2.636.14 4.743 1.2 6.254 3.158a10.826 10.826 0 0 1 2.066 5.22c.372 3.14-.64 5.35-1.5 5.678a.655.655 0 0 1-.234.048zm-2.212-5.306a.373.373 0 0 1 .373.277c.6 2.194 1.46 4.193 1.86 4.28.34-.143 1.33-1.876.98-4.876-.142-1.23-1.184-7.383-7.6-7.72-1.466-.08-1.976-.776-2.28-1.193a2.123 2.123 0 0 0-.182-.225 3.547 3.547 0 0 0-.038.702c0 .58 0 1.125-.432 1.308-.323.132-.696-.063-1.094-.27a3.473 3.473 0 0 0-.465-.22 4 4 0 0 0-.034.483c0 .465-.022.904-.313 1.125-1.578 1.286-2.605 3.2-3.052 5.655-.22 1.2-.086 3.634.614 4.56a.934.934 0 0 0 .205.214 3.56 3.56 0 0 1 1.314-2.625c.704-.593.838-1.6.93-2.352.083-.622.146-1.125.555-1.26s.745.147 1.035.443c.4.232 4.26 2.37 7.58 1.7l.055-.015zm-1.798 12.034h1v2.67h-1zm-6.814 2.666l.036-2.85.745.01-.036 2.85zm5.035-20.494a6.558 6.558 0 0 1-3.228-.979l.373-.644a5.77 5.77 0 0 0 2.922.873v.75h-.067zm1.503 7.4a2.19 2.19 0 0 0-2.136 1.763h-.84a2.183 2.183 0 0 0-2.39-1.743 2.192 2.192 0 0 0-1.928 2.249 2.19 2.19 0 0 0 2.059 2.128 2.186 2.186 0 0 0 2.281-1.884h.804a2.181 2.181 0 0 0 2.367 1.865 2.189 2.189 0 0 0 1.963-2.292 2.185 2.185 0 0 0-2.178-2.086zm-5.1 3.638a1.444 1.444 0 1 1 0-2.888 1.444 1.444 0 1 1 0 2.888zm5.1 0a1.433 1.433 0 0 1-1.326-.889 1.452 1.452 0 0 1 .308-1.574 1.426 1.426 0 0 1 1.563-.315c.536.223.885.75.885 1.334a1.44 1.44 0 0 1-1.43 1.444zm18.9 22.75l4.77-4.98.536.52-4.77 4.98zm-2.603-2.618l4.77-4.98.535.52-4.768 4.98z"/></g></svg>