<svg xmlns="http://www.w3.org/2000/svg" width="49" height="69"><g fill="#232f3e"><path d="M20.358 51.06H2.328A1.834 1.834 0 0 1 .5 49.22V1.84C.5.824 1.32 0 2.33 0h21.76v.92H2.33a.917.917 0 0 0-.915.92v47.38a.92.92 0 0 0 .915.92h18.03v.92z"/><path d="M35.663 12.58H24.075a.459.459 0 0 1-.457-.46V.46a.455.455 0 1 1 .777-.327l11.593 11.66a.462.462 0 0 1-.325.787zm-11.13-.92h10.025L24.532 1.57v10.09zM6.018 27.232h15.086v1H6.018zm0 6.83H16.23v1H6.018zm0 6.836h10.615v1H6.018z"/><path d="M35.206 12.12h1V22.49h-1zM14.804 23.575a.457.457 0 0 1-.407-.253l-3.268-6.6-1.742 2.824a.457.457 0 0 1-.389.221h-2.98v-.906H8.76l2.043-3.312a.457.457 0 1 1 .8.037l3.16 6.394 3.2-8.515a.457.457 0 0 1 .846 0l2.4 5.396h8.9v.92H20.9a.457.457 0 0 1-.416-.271L18.4 14.817l-3.168 8.46a.457.457 0 0 1-.407.299h-.023z"/></g><path fill="#f59d0f" d="M33.538 54.565a1.18 1.18 0 0 1-.74-.262l-1.212-.975a.282.282 0 0 0-.275-.046l-1.494.538a1.19 1.19 0 0 1-1.431-.46l-.873-1.316a.297.297 0 0 0-.247-.128l-1.568.064a1.208 1.208 0 0 1-1.203-.879l-.425-1.522a.293.293 0 0 0-.196-.198l-1.513-.428a1.2 1.2 0 0 1-.832-1.196l.064-1.582a.29.29 0 0 0-.128-.249l-1.308-.878a1.2 1.2 0 0 1-.457-1.417l.544-1.486a.287.287 0 0 0-.041-.276l-.974-1.237a1.216 1.216 0 0 1 0-1.495l.974-1.242a.287.287 0 0 0 .041-.276l-.544-1.48a1.205 1.205 0 0 1 .457-1.422l1.303-.878a.29.29 0 0 0 .128-.249l-.06-1.578a1.205 1.205 0 0 1 .85-1.191l1.514-.46a.284.284 0 0 0 .197-.198l.425-1.522a1.2 1.2 0 0 1 1.202-.879l1.568.064c.098.001.2-.047.247-.128l.855-1.298a1.19 1.19 0 0 1 1.412-.46l1.472.548a.28.28 0 0 0 .275-.042l1.234-.98a1.196 1.196 0 0 1 1.486 0l1.23.98c.077.06.18.077.274.042l1.476-.548a1.185 1.185 0 0 1 1.408.46l.873 1.31a.3.3 0 0 0 .247.13l1.573-.065a1.203 1.203 0 0 1 1.211.878l.425 1.523a.289.289 0 0 0 .201.198l1.51.428c.535.15.896.65.873 1.2l-.06 1.568a.3.3 0 0 0 .129.248l1.307.88a1.21 1.21 0 0 1 .457 1.421l-.544 1.482a.287.287 0 0 0 .046.276l.97 1.242a1.202 1.202 0 0 1 0 1.495l-.97 1.237a.287.287 0 0 0-.046.276l.544 1.486a1.2 1.2 0 0 1-.457 1.417l-1.307.878a.3.3 0 0 0-.128.249l.064 1.582a1.2 1.2 0 0 1-.873 1.205l-1.51.428a.284.284 0 0 0-.197.198l-.434 1.532c-.15.53-.644.9-1.193.87l-1.55-.055a.297.297 0 0 0-.247.129l-.896 1.306c-.305.465-.9.655-1.408.46l-1.476-.547a.282.282 0 0 0-.274.046l-1.23.975a1.2 1.2 0 0 1-.745.271zm-2.153-2.222a1.21 1.21 0 0 1 .745.263l1.234.975a.282.282 0 0 0 .352 0l1.23-.975a1.2 1.2 0 0 1 1.16-.189l1.473.552c.123.045.26 0 .334-.1l.873-1.316c.23-.344.617-.545 1.028-.534l1.573.06a.288.288 0 0 0 .283-.207l.425-1.522a1.22 1.22 0 0 1 .828-.833l1.513-.428a.285.285 0 0 0 .206-.285l-.06-1.582a1.212 1.212 0 0 1 .53-1.05l1.308-.878a.282.282 0 0 0 .105-.336l-.544-1.48a1.225 1.225 0 0 1 .188-1.17l.97-1.237a.287.287 0 0 0 0-.354l-.97-1.242a1.21 1.21 0 0 1-.187-1.164l.544-1.48a.286.286 0 0 0-.105-.341l-1.307-.88a1.208 1.208 0 0 1-.53-1.049l.06-1.577a.29.29 0 0 0-.206-.29l-1.5-.405a1.202 1.202 0 0 1-.836-.856l-.425-1.522a.288.288 0 0 0-.284-.207l-1.577.064a1.195 1.195 0 0 1-1.042-.538l-.86-1.31a.282.282 0 0 0-.333-.11l-1.472.547c-.393.143-.83.073-1.16-.184l-1.23-.98a.282.282 0 0 0-.352 0l-1.234.98a1.205 1.205 0 0 1-1.157.184L29.5 26.8a.287.287 0 0 0-.338.11l-.873 1.31a1.21 1.21 0 0 1-1.043.538l-1.568-.064a.293.293 0 0 0-.288.207l-.425 1.522a1.2 1.2 0 0 1-.827.856l-1.513.428a.294.294 0 0 0-.206.29l.064 1.577c.014.42-.188.817-.535 1.05l-1.303.878a.286.286 0 0 0-.11.336l.535 1.462c.142.394.073.834-.182 1.164l-.974 1.242a.287.287 0 0 0 0 .354l.974 1.238c.255.332.324.773.182 1.168l-.544 1.48a.286.286 0 0 0 .11.336l1.303.88a1.22 1.22 0 0 1 .535 1.049l-.032 1.582a.29.29 0 0 0 .206.285l1.513.428a1.21 1.21 0 0 1 .827.833l.425 1.522a.284.284 0 0 0 .288.207l1.568-.06a1.2 1.2 0 0 1 1.043.534l.873 1.316a.296.296 0 0 0 .338.11l1.472-.552a1.25 1.25 0 0 1 .389-.074z"/><path fill="#252f3e" d="M33.538 47.8a7.977 7.977 0 0 1-7.37-4.957 8.064 8.064 0 0 1 1.73-8.748 7.941 7.941 0 0 1 8.696-1.737 8.028 8.028 0 0 1 4.92 7.42c-.004 4.43-3.573 8.02-7.976 8.022zm0-15.13c-3.9 0-7.063 3.182-7.063 7.107s3.162 7.107 7.063 7.107S40.6 43.7 40.6 39.776a7.134 7.134 0 0 0-2.067-5.03 7.045 7.045 0 0 0-4.996-2.086v.01z"/><path fill="#f59d0f" d="M35.7 68.857a1.363 1.363 0 0 1-.192 0 1.205 1.205 0 0 1-.983-.92L31.86 56.12l.914-.207 2.665 11.822a.275.275 0 0 0 .234.216.283.283 0 0 0 .292-.133l1.207-2.047a1.187 1.187 0 0 1 1.719-.373l1.915 1.348a.27.27 0 0 0 .32 0 .281.281 0 0 0 .12-.299l-2.392-11.17.915-.193L42.1 66.24c.088.474-.112.955-.5 1.225s-.915.276-1.32.017l-1.915-1.348a.282.282 0 0 0-.407.088l-1.207 2.047a1.19 1.19 0 0 1-1.042.588zm-5.8-.022a1.197 1.197 0 0 1-1.047-.59l-1.175-2.005a.293.293 0 0 0-.183-.133.277.277 0 0 0-.224.046L25.346 67.5a1.196 1.196 0 0 1-1.348.013 1.213 1.213 0 0 1-.513-1.255l2.615-12.25.914.194-2.6 12.23a.281.281 0 0 0 .119.3c.095.068.224.068.32 0l1.915-1.35a1.187 1.187 0 0 1 1.72.373l1.192 2.02a.28.28 0 0 0 .293.137.275.275 0 0 0 .228-.22l1.148-5.355.914.193-1.147 5.355a1.19 1.19 0 0 1-.979.92.984.984 0 0 1-.237.028z"/></svg>