<svg xmlns="http://www.w3.org/2000/svg" width="8" height="9" viewBox="0 0 8 9">
    <path fill="#FFF" fill-rule="nonzero" d="M7.757 2.887L4.429.148a.646.646 0 0 0-.818-.003L.275 2.847a.673.673 0 0 0-.248.52L0 8.328c0 .177.068.348.19.474C.313 8.93.48 9 .654 9h6.692A.66.66 0 0 0 8 8.333V3.407a.673.673 0 0 0-.243-.52zM3 6.237l1.993-.006L5 8.3l-1.993.007L3 6.238zm4.333 2.07H5.657l-.008-2.42a.328.328 0 0 0-.327-.33l-2.565.008c-.18 0-.325.15-.324.333l.008 2.41H.667l.027-4.931L4.018.692l3.315 2.722v4.894z"/>
</svg>
