<svg xmlns="http://www.w3.org/2000/svg" width="28" height="51"><path fill="#232f3e" d="M7.723 33.897a4.174 4.174 0 0 1-2.052-.563 4.081 4.081 0 0 1-1.772-1.987 2.704 2.704 0 0 1 .103-2.383l.616.354a2.014 2.014 0 0 0-.06 1.77 3.35 3.35 0 0 0 1.467 1.63c1.397.797 3.038.57 3.654-.5l.614.354a2.836 2.836 0 0 1-2.57 1.335z"/><path fill="#f59d0f" d="M11.917 29.6l1.933-3.346.614.354-1.933 3.346zm-6.6-3.852l5.777-10.003.614.354L5.93 26.112zm6.597-11.422l2.154-3.73.614.354-2.154 3.73zm3.327-4.352l-.613-.354 1.202-2.086a.354.354 0 0 1 .216-.163.355.355 0 0 1 .27.035l1.336.77 2.57-4.434.612.354-2.74 4.75a.354.354 0 0 1-.212.166.372.372 0 0 1-.27-.036l-1.336-.772-1.034 1.77zm4.133 8.132l-.613-.355 3.52-6.073-1.337-.773a.354.354 0 0 1-.13-.485L23.5 5.762l.613.354-2.492 4.346 1.34.772a.354.354 0 0 1 .128.482l-3.715 6.4z"/><path fill="#232f3e" d="M11.313 33.706a.355.355 0 0 1-.177-.05l-8.343-4.813a.354.354 0 0 1-.128-.481l1.02-1.77a.355.355 0 0 1 .482-.131l8.343 4.816a.354.354 0 0 1 .132.482l-1.02 1.77a.354.354 0 0 1-.216.163.387.387 0 0 1-.093.014zm-7.857-5.312l7.73 4.473.666-1.155-7.73-4.44-.666 1.123z"/><path fill="#f59d0f" d="M25.434 5.667a.355.355 0 0 1-.177-.05l-5.24-3a.354.354 0 0 1-.127-.482L20.81.53a.354.354 0 0 1 .485-.13l5.24 3.02c.163.098.22.308.127.475L25.74 5.5a.354.354 0 0 1-.22.177.415.415 0 0 1-.085 0zM20.68 2.17l4.608 2.667.584-.98-4.607-2.663-.585.977z"/><path d="M18.374 42.475H2.563a.354.354 0 0 1-.355-.354v-2.214c0-.195.16-.354.355-.354h15.54v.7H2.917v1.505h15.457v.708zm9.215 0h-2.424v-.708h2.073v-1.505h-1.825v-.7h2.176c.196 0 .354.16.354.355v2.213a.354.354 0 0 1-.354.354zm-1.716-3.87l-.708-.06.074-1.746a20.123 20.123 0 0 0-4.505-12.715l.55-.446a20.51 20.51 0 0 1 1.417 1.99 20.782 20.782 0 0 1 3.247 11.185 13.73 13.73 0 0 1-.075 1.792zm.972 12.084H.755a.758.758 0 0 1-.755-.75v-1.474a.772.772 0 0 1 .223-.538.77.77 0 0 1 .532-.216c1.825.025 11.218.056 16.658-1.5a3.476 3.476 0 0 0 2.166-1.806 13.63 13.63 0 0 0 .503-1.12l.656.266a18.07 18.07 0 0 1-.521 1.165 4.182 4.182 0 0 1-2.609 2.175C12.1 48.475 2.612 48.44.762 48.42H.73a.039.039 0 0 0 0 .031v1.487c0 .026.02.047.046.047h26.07a.046.046 0 0 0 .05-.047v-.818a.053.053 0 0 0-.05-.05c-.688-.1-2.084-.584-3.718-2.833a.354.354 0 0 1-.029-.354v-.032c.46-.913.852-1.86 1.17-2.833l.673.22a20.682 20.682 0 0 1-1.13 2.787c1.47 1.95 2.66 2.306 3.112 2.366.378.048.662.37.662.75v.797a.758.758 0 0 1-.74.751zM22.06 36.794h-.7a16.212 16.212 0 0 0-2.526-8.716 17.1 17.1 0 0 0-1.007-1.416l.553-.454a16.73 16.73 0 0 1 1.063 1.477 16.927 16.927 0 0 1 2.627 9.11zm-.277 6.174a2.378 2.378 0 1 1-.001-4.755 2.378 2.378 0 0 1 .001 4.755zm0-4.042a1.67 1.67 0 1 0 0 3.34 1.67 1.67 0 0 0 0-3.34zm-6.188-13.203a3.99 3.99 0 1 1 3.99-3.988 3.993 3.993 0 0 1-3.99 3.988zm0-7.267a3.281 3.281 0 1 0-.003 6.561 3.281 3.281 0 0 0 .003-6.561zm0 5.227a1.949 1.949 0 1 1-.002-3.897 1.949 1.949 0 0 1 .002 3.897zm0-3.187a1.24 1.24 0 1 0-.001 2.48 1.24 1.24 0 0 0 0-2.48zM9.1 37.464H6.38a.354.354 0 0 1-.354-.354v-3.818h.7v3.474h2.02v-3.308h.708V37.1a.354.354 0 0 1-.354.354zm-5.235-2.1a.355.355 0 0 1-.252-.103l-1.938-1.937a.354.354 0 0 1 0-.5L3.85 30.65l.5.517-1.914 1.912 1.44 1.438 1.613-1.615.503.503-1.868 1.863a.355.355 0 0 1-.248.085z" fill="#232f3e"/></svg>