<svg xmlns="http://www.w3.org/2000/svg" width="53" height="61"><g fill="#232f3e"><path d="M33.72 48.987H19.23a.415.415 0 0 1-.414-.415v-6.486a17.24 17.24 0 0 1-9.071-19.363C11.57 14.94 18.498 9.44 26.475 9.44s14.905 5.5 16.73 13.282-1.93 15.8-9.07 19.363v6.486c0 .23-.186.415-.415.415zm-14.078-.83h13.664V41.83c0-.16.1-.304.232-.374 6.888-3.306 10.577-10.95 8.886-18.413S34.113 10.28 26.475 10.28s-14.258 5.298-15.95 12.762 1.998 15.107 8.886 18.413a.415.415 0 0 1 .236.374l-.004 6.328z"/><path d="M26.06 33.596h1v14.98h-1z"/><path d="M22.75 33.056h7.453v1H22.75z"/></g><path fill="#f59d0f" d="M15.193.318l.765-.317 2.82 6.82-.766.318zM0 37.075l6.836-2.84.317.768L.317 37.84zM45.83 18.05l6.805-2.826.317.767-6.805 2.826zM0 15.99l.317-.767 6.836 2.838-.317.767zm45.83 19.025l.316-.767 6.806 2.825-.317.767zM34.177 6.822l2.82-6.82.765.318-2.82 6.82z"/><path fill="#232f3e" d="M32.918 52.887H20.032a1.21 1.21 0 0 1-1.209-1.211v-.594c0-.67.54-1.213 1.2-1.216h12.885c.67 0 1.213.545 1.213 1.216v.594a1.215 1.215 0 0 1-1.213 1.211zm-12.886-2.2a.386.386 0 0 0-.38.385v.594a.38.38 0 0 0 .38.381h12.886c.21 0 .383-.17.385-.38v-.594a.385.385 0 0 0-.385-.386H20.032zm12.886 6.09H20.032a1.21 1.21 0 0 1-1.209-1.212v-.593a1.21 1.21 0 0 1 1.21-1.212h12.885c.668 0 1.2.542 1.213 1.212v.593a1.215 1.215 0 0 1-1.213 1.212zM20.032 54.6a.38.38 0 0 0-.38.382v.593a.38.38 0 0 0 .38.382h12.886c.21 0 .383-.17.385-.382v-.593a.385.385 0 0 0-.385-.382H20.032zm8.728 6.088h-4.554a.414.414 0 0 1-.368-.224l-1.14-2.187a.416.416 0 0 1 0-.415.414.414 0 0 1 .353-.203h6.844a.414.414 0 0 1 .369.61l-1.135 2.186a.414.414 0 0 1-.368.233zm-4.318-.83h4.066l.708-1.35h-5.478l.704 1.35z"/></svg>