<svg xmlns="http://www.w3.org/2000/svg" width="115" height="115" viewBox="0 0 115 115">
    <g fill="none" fill-rule="evenodd">
        <g fill="#F59D0F">
            <path fill-opacity=".3" d="M57.054 102.448c-25.069 0-45.392-20.323-45.392-45.392 0-25.07 20.323-45.394 45.392-45.394 25.07 0 45.392 20.323 45.392 45.394 0 25.069-20.322 45.392-45.392 45.392M57.054 0C25.545 0 0 25.545 0 57.056c0 31.51 25.545 57.054 57.054 57.054 31.511 0 57.055-25.545 57.055-57.054C114.109 25.545 88.565 0 57.054 0"/>
            <path fill-opacity=".69" d="M57.054 11.663c-25.069 0-45.392 20.323-45.392 45.392 0 25.07 20.323 45.393 45.392 45.393 25.07 0 45.392-20.322 45.392-45.393 0-25.07-20.322-45.392-45.392-45.392"/>
            <path d="M87.702 57.055c0-16.926-13.722-30.646-30.648-30.646-16.926 0-30.646 13.72-30.646 30.646 0 16.926 13.72 30.647 30.646 30.647 16.926 0 30.648-13.72 30.648-30.647"/>
        </g>
        <path fill="#FFF" d="M72 57.5L49 71V44z"/>
    </g>
</svg>
