<svg xmlns="http://www.w3.org/2000/svg" width="85" height="59"><g fill="#f59d0f"><path d="M74.038 46.942h-.26v-.976h.26v.976zm2.978 0l-.06-.976a5.514 5.514 0 0 0 1.755-.395l.364.907a6.706 6.706 0 0 1-2.06.449v.015zm4.658-2.2l-.693-.692a8.628 8.628 0 0 0 1.16-1.434l.825.527a9.718 9.718 0 0 1-1.292 1.585v.014zm2.584-4.388l-.933-.288c.185-.598.323-1.2.412-1.828l.983.14c-.1.673-.254 1.336-.462 1.985v-.01zm-.432-4.92c-.05-.625-.15-1.244-.3-1.853l.958-.23c.16.658.266 1.326.32 2l-.978.083zm-1.283-4.452a9.167 9.167 0 0 0-1.036-1.536l.75-.624c.44.526.826 1.094 1.15 1.697l-.865.463zM79.4 27.706a5.969 5.969 0 0 0-1.695-.62l.19-.975c.69.14 1.352.383 1.966.722l-.462.873zm-4.54-.722h-1.965v-.975h1.965v.975zm-4.913 0H67.98v-.975h1.966v.975zm-4.914 0h-1.965v-.975h1.965v.975zm-42 0h-.492v-.975h.492v.975zm-3.44 0H17.63v-.975h1.965v.975zm-5.036-.653a8.279 8.279 0 0 1-1.783-1.112l.614-.756a7.378 7.378 0 0 0 1.562.975l-.393.893zm-3.842-3.36a11.715 11.715 0 0 1-.983-1.775l.894-.4c.258.568.56 1.114.905 1.634l-.816.54zm-1.91-4.66a14.261 14.261 0 0 1-.256-2l.983-.058a13.98 13.98 0 0 0 .24 1.867l-.967.2zm.845-4.877l-.983-.14a14.42 14.42 0 0 1 .432-1.951l.944.273c-.172.6-.304 1.19-.393 1.8v.02zm1.513-4.388l-.85-.488c.337-.613.734-1.193 1.184-1.73l.747.633a9.97 9.97 0 0 0-1.081 1.541v.044zm3.194-3.29l-.492-.878a7.806 7.806 0 0 1 1.931-.8l.246.946a6.805 6.805 0 0 0-1.685.688v.044zm11.37-.94H23.76v-.976h1.965v.976zm-4.913 0h-1.966v-.976h1.966v.976z"/><path d="M69.926 50.54a4.806 4.806 0 0 1-4.44-2.945 4.742 4.742 0 0 1 1.044-5.197 4.832 4.832 0 0 1 5.238-1.031 4.768 4.768 0 0 1 2.963 4.41c-.002 2.63-2.153 4.763-4.805 4.763zm0-8.557c-2.11 0-3.823 1.698-3.823 3.793a3.81 3.81 0 0 0 7.646 0 3.779 3.779 0 0 0-1.12-2.682 3.837 3.837 0 0 0-2.703-1.111zM29.568 8.158a3.867 3.867 0 0 1-3.573-2.37 3.816 3.816 0 0 1 .84-4.183 3.888 3.888 0 0 1 4.216-.829 3.837 3.837 0 0 1 2.384 3.549c-.003 2.117-1.733 3.833-3.867 3.833zm0-6.695c-1.593 0-2.884 1.28-2.884 2.862s1.29 2.862 2.884 2.862 2.884-1.28 2.884-2.862c0-.76-.304-1.487-.844-2.024a2.895 2.895 0 0 0-2.04-.838z"/></g><path d="M9.438 31.694h4.928v1H9.438zM50.823 58.62a2.73 2.73 0 0 1-1.744-.63 2.687 2.687 0 0 1-.34-3.803l4.63-5.48-14.637-.034a4.23 4.23 0 0 1-3.071-1.332l-9.62-10.244H2.72A2.712 2.712 0 0 1 0 34.396a2.712 2.712 0 0 1 2.722-2.702h5.075v.975H2.722c-.96 0-1.74.773-1.74 1.727s.78 1.726 1.74 1.726h23.544a.5.5 0 0 1 .36.15l9.757 10.4a3.23 3.23 0 0 0 2.349 1.024l15.688.04a.485.485 0 1 1 .373.8l-5.3 6.28a1.717 1.717 0 0 0 .273 2.36 1.75 1.75 0 0 0 2.39-.147l8.387-9.942.093-.127a2.16 2.16 0 0 0 .138-.258v-.054a2.18 2.18 0 0 0 .073-.234.561.561 0 0 1 0-.088v-.283c.01-.102.01-.205 0-.307a.455.455 0 0 1 0-.078 1.672 1.672 0 0 0-.059-.21l-.04-.097a.334.334 0 0 0 0-.063 1.362 1.362 0 0 0-.088-.161l-.03-.05a1.677 1.677 0 0 0-.196-.218l-.04-.04-8.804-9a1.73 1.73 0 0 0-1.224-.523 1.662 1.662 0 0 0-1.233.488 1.717 1.717 0 0 0-.034 2.438l5.13 5.227a.485.485 0 0 1 .096.528.491.491 0 0 1-.45.296l-14.818-.034a.493.493 0 0 1-.359-.156l-9.743-10.4a3.254 3.254 0 0 0-2.363-1.025h-9.557v-.975h9.557a4.23 4.23 0 0 1 3.08 1.336l9.635 10.245 13.438.034-4.314-4.4a2.687 2.687 0 0 1 .05-3.817 2.782 2.782 0 0 1 1.935-.766c.72.008 1.4.3 1.912.814l8.902 9.065a2.24 2.24 0 0 1 .276.346.29.29 0 0 1 .04.068 1.92 1.92 0 0 1 .142.259.485.485 0 0 1 .035.088 2.909 2.909 0 0 1 .157.488 1.22 1.22 0 0 1 0 .121c.025.15.038.302.04.454v.087a2.38 2.38 0 0 1-.045.376 1.21 1.21 0 0 1 0 .141 2.85 2.85 0 0 1-.113.361c0 .034 0 .058-.034.088a2.354 2.354 0 0 1-.29.502l-.035.054-.088.117-8.353 9.893a2.73 2.73 0 0 1-2.137.96zM30.698 31.124l-.727-.668 8.736-9.3a.493.493 0 0 1 .359-.156l14.818-.034a.485.485 0 1 1 .354.829l-5.105 5.217a1.717 1.717 0 0 0 .034 2.438 1.71 1.71 0 0 0 1.234.488 1.77 1.77 0 0 0 1.189-.517l8.844-8.977a.215.215 0 0 1 .039-.049 1.51 1.51 0 0 0 .187-.234v-.048a.861.861 0 0 0 .093-.161.334.334 0 0 1 0-.064.97.97 0 0 0 .034-.092c.025-.07.045-.14.06-.2v-.054a2.32 2.32 0 0 0 .03-.312v-.302a.561.561 0 0 1 0-.088 1.785 1.785 0 0 0-.074-.229v-.058a1.907 1.907 0 0 0-.142-.259l-.1-.122-.03-.044L52.2 8.22a1.743 1.743 0 0 0-1.862-.536 1.724 1.724 0 0 0-1.199 1.511c-.04.455.104.907.398 1.258l5.3 6.276c.124.145.15.35.07.52a.492.492 0 0 1-.443.283l-15.722.02a3.225 3.225 0 0 0-2.35 1.019L26.1 29.437l-.717-.668 10.284-10.864a4.206 4.206 0 0 1 3.066-1.326l14.636-.04-4.628-5.48a2.687 2.687 0 0 1 .396-3.736 2.737 2.737 0 0 1 3.775.269l8.353 9.898.088.122-.378.312.413-.263.068.088c.084.13.158.268.222.4l.03.082a2.78 2.78 0 0 1 .117.366l.03.14a3.2 3.2 0 0 1 .039.366v.102a2.875 2.875 0 0 1-.04.454.784.784 0 0 1 0 .093 2.68 2.68 0 0 1-.103.36c-.015.05-.033.1-.054.147 0 .034 0 .063-.034.092s-.098.176-.148.264l-.04.068a2.85 2.85 0 0 1-.3.375l-.044.05-8.844 8.98c-.5.516-1.2.8-1.9.82a2.802 2.802 0 0 1-1.936-.77 2.687 2.687 0 0 1-.049-3.818l4.314-4.4-13.4.034-8.608 9.148z" fill="#232f3e"/></svg>