<svg xmlns="http://www.w3.org/2000/svg" viewBox="0 0 49.99 30.02"><defs><style>.cls-1{fill:#fff;}</style></defs><title>AWS_Logo_white</title><g id="Layer_2" data-name="Layer 2"><g id="Layer_1-2" data-name="Layer 1"><path class="cls-1" d="M14.09,10.87a4.93,4.93,0,0,0,.19,1.48,8.5,8.5,0,0,0,.54,1.19.77.77,0,0,1,.12.38.62.62,0,0,1-.32.49l-1,.7a.78.78,0,0,1-.44.15.67.67,0,0,1-.49-.23,4.08,4.08,0,0,1-.6-.77,8.38,8.38,0,0,1-.51-1,6.15,6.15,0,0,1-4.89,2.3,4.52,4.52,0,0,1-3.32-1.19,4.28,4.28,0,0,1-1.22-3.2,4.3,4.3,0,0,1,1.46-3.4A6.08,6.08,0,0,1,7.69,6.48a14.73,14.73,0,0,1,1.76.13c.61.09,1.25.21,1.91.36V5.75a3.66,3.66,0,0,0-.79-2.66,3.82,3.82,0,0,0-2.71-.77,8.35,8.35,0,0,0-1.79.22,13.8,13.8,0,0,0-1.79.57,4.07,4.07,0,0,1-.58.22H3.44c-.23,0-.35-.17-.35-.52V2a1.17,1.17,0,0,1,.12-.58,1.35,1.35,0,0,1,.47-.35A11.08,11.08,0,0,1,5.77.34,10.81,10.81,0,0,1,8.36,0a6,6,0,0,1,4.35,1.35,5.49,5.49,0,0,1,1.38,4.09ZM7.34,13.4a5.28,5.28,0,0,0,1.72-.31A3.62,3.62,0,0,0,10.63,12a2.54,2.54,0,0,0,.56-1,5.35,5.35,0,0,0,.16-1.44v-.7A15.29,15.29,0,0,0,9.82,8.6a13.61,13.61,0,0,0-1.56-.1,3.87,3.87,0,0,0-2.47.67A2.34,2.34,0,0,0,5,11a2.31,2.31,0,0,0,.61,1.76A2.4,2.4,0,0,0,7.34,13.4Zm13.35,1.8a1,1,0,0,1-.64-.16,1.22,1.22,0,0,1-.35-.65L15.81,1.53a3.63,3.63,0,0,1-.15-.67A.37.37,0,0,1,16,.45H17.7a1.05,1.05,0,0,1,.65.16,1.39,1.39,0,0,1,.33.65l2.79,11,2.59-11a1.24,1.24,0,0,1,.33-.64,1.13,1.13,0,0,1,.67-.16H26.4a1.11,1.11,0,0,1,.67.16,1.18,1.18,0,0,1,.32.65L30,12.41,32.88,1.27a1.41,1.41,0,0,1,.34-.65,1.05,1.05,0,0,1,.65-.16h1.54a.36.36,0,0,1,.41.31.17.17,0,0,1,0,.1,1.13,1.13,0,0,1,0,.26,2.77,2.77,0,0,1-.12.41l-4,12.86a1.22,1.22,0,0,1-.35.65,1,1,0,0,1-.64.16H29.25a.94.94,0,0,1-.67-.17,1.27,1.27,0,0,1-.32-.67L25.67,3.66l-2.56,10.7a1.27,1.27,0,0,1-.32.67.93.93,0,0,1-.67.17Zm21.36.44a11,11,0,0,1-2.56-.29,7.3,7.3,0,0,1-1.92-.67,1,1,0,0,1-.61-.93v-.84c0-.34.13-.52.38-.52a1.55,1.55,0,0,1,.31.06l.42.17a8.47,8.47,0,0,0,1.83.58,9,9,0,0,0,2,.2,4.46,4.46,0,0,0,2.43-.55,1.76,1.76,0,0,0,.86-1.57,1.61,1.61,0,0,0-.45-1.16A4.35,4.35,0,0,0,43,9.24l-2.41-.76A5.1,5.1,0,0,1,38,6.8a4,4,0,0,1-.83-2.41,3.75,3.75,0,0,1,.45-1.85,4.47,4.47,0,0,1,1.19-1.37,5.45,5.45,0,0,1,1.7-.86A7.75,7.75,0,0,1,42.6,0a10.36,10.36,0,0,1,1.12.07c.38.05.74.11,1.08.19s.66.17,1,.26a5.42,5.42,0,0,1,.7.29,1.78,1.78,0,0,1,.49.41.92.92,0,0,1,.15.55v.79c0,.35-.13.52-.38.52a1.65,1.65,0,0,1-.64-.2,8,8,0,0,0-3.2-.64,4.45,4.45,0,0,0-2.21.47,1.61,1.61,0,0,0-.79,1.48,1.57,1.57,0,0,0,.49,1.18,4.87,4.87,0,0,0,1.83.92L44.55,7a5.08,5.08,0,0,1,2.57,1.6A3.74,3.74,0,0,1,47.9,11,4.17,4.17,0,0,1,47.46,13a4.21,4.21,0,0,1-1.21,1.47,5.38,5.38,0,0,1-1.85.93A8.1,8.1,0,0,1,42.05,15.64Z"/><path class="cls-1" d="M45.19,23.83C39.72,27.87,31.78,30,25,30A36.61,36.61,0,0,1,.22,20.59c-.51-.46-.06-1.09.56-.74a49.76,49.76,0,0,0,24.75,6.57A49.14,49.14,0,0,0,44.4,22.55C45.32,22.16,46.1,23.16,45.19,23.83Z"/><path class="cls-1" d="M47.47,21.23c-.7-.9-4.63-.42-6.39-.21-.53.06-.62-.4-.14-.74,3.13-2.2,8.27-1.57,8.86-.83s-.16,5.89-3.09,8.35c-.45.38-.88.18-.68-.32C46.69,25.82,48.17,22.13,47.47,21.23Z"/><path class="cls-1" d="M14.09,10.87a4.93,4.93,0,0,0,.19,1.48,8.5,8.5,0,0,0,.54,1.19.77.77,0,0,1,.12.38.62.62,0,0,1-.32.49l-1,.7a.78.78,0,0,1-.44.15.67.67,0,0,1-.49-.23,4.08,4.08,0,0,1-.6-.77,8.38,8.38,0,0,1-.51-1,6.15,6.15,0,0,1-4.89,2.3,4.52,4.52,0,0,1-3.32-1.19,4.28,4.28,0,0,1-1.22-3.2,4.3,4.3,0,0,1,1.46-3.4A6.08,6.08,0,0,1,7.69,6.48a14.73,14.73,0,0,1,1.76.13c.61.09,1.25.21,1.91.36V5.75a3.66,3.66,0,0,0-.79-2.66,3.82,3.82,0,0,0-2.71-.77,8.35,8.35,0,0,0-1.79.22,13.8,13.8,0,0,0-1.79.57,4.07,4.07,0,0,1-.58.22H3.44c-.23,0-.35-.17-.35-.52V2a1.17,1.17,0,0,1,.12-.58,1.35,1.35,0,0,1,.47-.35A11.08,11.08,0,0,1,5.77.34,10.81,10.81,0,0,1,8.36,0a6,6,0,0,1,4.35,1.35,5.49,5.49,0,0,1,1.38,4.09ZM7.34,13.4a5.28,5.28,0,0,0,1.72-.31A3.62,3.62,0,0,0,10.63,12a2.54,2.54,0,0,0,.56-1,5.35,5.35,0,0,0,.16-1.44v-.7A15.29,15.29,0,0,0,9.82,8.6a13.61,13.61,0,0,0-1.56-.1,3.87,3.87,0,0,0-2.47.67A2.34,2.34,0,0,0,5,11a2.31,2.31,0,0,0,.61,1.76A2.4,2.4,0,0,0,7.34,13.4Zm13.35,1.8a1,1,0,0,1-.64-.16,1.22,1.22,0,0,1-.35-.65L15.81,1.53a3.63,3.63,0,0,1-.15-.67A.37.37,0,0,1,16,.45H17.7a1.05,1.05,0,0,1,.65.16,1.39,1.39,0,0,1,.33.65l2.79,11,2.59-11a1.24,1.24,0,0,1,.33-.64,1.13,1.13,0,0,1,.67-.16H26.4a1.11,1.11,0,0,1,.67.16,1.18,1.18,0,0,1,.32.65L30,12.41,32.88,1.27a1.41,1.41,0,0,1,.34-.65,1.05,1.05,0,0,1,.65-.16h1.54a.36.36,0,0,1,.41.31.17.17,0,0,1,0,.1,1.13,1.13,0,0,1,0,.26,2.77,2.77,0,0,1-.12.41l-4,12.86a1.22,1.22,0,0,1-.35.65,1,1,0,0,1-.64.16H29.25a.94.94,0,0,1-.67-.17,1.27,1.27,0,0,1-.32-.67L25.67,3.66l-2.56,10.7a1.27,1.27,0,0,1-.32.67.93.93,0,0,1-.67.17Zm21.36.44a11,11,0,0,1-2.56-.29,7.3,7.3,0,0,1-1.92-.67,1,1,0,0,1-.61-.93v-.84c0-.34.13-.52.38-.52a1.55,1.55,0,0,1,.31.06l.42.17a8.47,8.47,0,0,0,1.83.58,9,9,0,0,0,2,.2,4.46,4.46,0,0,0,2.43-.55,1.76,1.76,0,0,0,.86-1.57,1.61,1.61,0,0,0-.45-1.16A4.35,4.35,0,0,0,43,9.24l-2.41-.76A5.1,5.1,0,0,1,38,6.8a4,4,0,0,1-.83-2.41,3.75,3.75,0,0,1,.45-1.85,4.47,4.47,0,0,1,1.19-1.37,5.45,5.45,0,0,1,1.7-.86A7.75,7.75,0,0,1,42.6,0a10.36,10.36,0,0,1,1.12.07c.38.05.74.11,1.08.19s.66.17,1,.26a5.42,5.42,0,0,1,.7.29,1.78,1.78,0,0,1,.49.41.92.92,0,0,1,.15.55v.79c0,.35-.13.52-.38.52a1.65,1.65,0,0,1-.64-.2,8,8,0,0,0-3.2-.64,4.45,4.45,0,0,0-2.21.47,1.61,1.61,0,0,0-.79,1.48,1.57,1.57,0,0,0,.49,1.18,4.87,4.87,0,0,0,1.83.92L44.55,7a5.08,5.08,0,0,1,2.57,1.6A3.74,3.74,0,0,1,47.9,11,4.17,4.17,0,0,1,47.46,13a4.21,4.21,0,0,1-1.21,1.47,5.38,5.38,0,0,1-1.85.93A8.1,8.1,0,0,1,42.05,15.64Z"/><path class="cls-1" d="M45.19,23.83C39.72,27.87,31.78,30,25,30A36.61,36.61,0,0,1,.22,20.59c-.51-.46-.06-1.09.56-.74a49.76,49.76,0,0,0,24.75,6.57A49.14,49.14,0,0,0,44.4,22.55C45.32,22.16,46.1,23.16,45.19,23.83Z"/><path class="cls-1" d="M47.47,21.23c-.7-.9-4.63-.42-6.39-.21-.53.06-.62-.4-.14-.74,3.13-2.2,8.27-1.57,8.86-.83s-.16,5.89-3.09,8.35c-.45.38-.88.18-.68-.32C46.69,25.82,48.17,22.13,47.47,21.23Z"/></g></g></svg>