<svg xmlns="http://www.w3.org/2000/svg" viewBox="0 0 168.96 68.35"><title>ba</title><g id="Layer_2" data-name="Layer 2"><g id="Layer_1-2" data-name="Layer 1"><path d="M6.89,43.11a1.81,1.81,0,0,0,.88-1.77V25.63a2,2,0,0,0-.88-1.77H14.3c3.35,0,6.71,1.41,6.71,5.3,0,1.94-1.77,3.53-3.71,3.88,2.83,0,5.3,1.59,5.3,4.59,0,4.42-4.42,5.48-7.59,5.48Zm6-17.48H11.65v6.71h.89c2.29,0,4.41-.71,4.41-3.36s-1.77-3.35-4.06-3.35Zm.53,8.47H11.65v7.06a13.18,13.18,0,0,0,2.65.18c1.94,0,3.88-.71,3.88-3.71,0-2.82-2.29-3.53-4.76-3.53ZM30,25.63h-.88v6.71H30a3.39,3.39,0,0,0,3.71-3.54c0-2.29-1.59-3.17-3.71-3.17Zm9.71,17.65a5.23,5.23,0,0,1-2.29-.35c-1.24-.35-3-3.18-3.71-4.41-1.23-1.77-2.12-4.42-4.59-4.42v7.24A1.81,1.81,0,0,0,30,43.11H24.19a1.81,1.81,0,0,0,.88-1.77V25.63a2,2,0,0,0-.88-1.77h7.06c3,0,6.71,1.24,6.71,4.94,0,3-2.47,4.6-5.3,4.6,3.89,0,6.36,9.35,10.77,9.35a13.15,13.15,0,0,1-3.71.53Zm3.89-.17a1.87,1.87,0,0,0,1.06-1.77V25.63a2.07,2.07,0,0,0-1.06-1.77h6a2.07,2.07,0,0,0-1.06,1.77V41.34a1.87,1.87,0,0,0,1.06,1.77Zm12.89,0a2.18,2.18,0,0,0,.88-1.77V26.16H53.14a8.08,8.08,0,0,0-3,.53l1.41-2.83h14a20.91,20.91,0,0,0,3.35-.18,4,4,0,0,1-3,2.48H61.26V41.34a2,2,0,0,0,1.06,1.77Zm13.06,0a1.87,1.87,0,0,0,1.06-1.77V25.63a2.07,2.07,0,0,0-1.06-1.77h6a2.07,2.07,0,0,0-1.06,1.77V41.34a1.87,1.87,0,0,0,1.06,1.77ZM87,38.69c0-3.53-8.65-4.41-8.65-10.24,0-3.53,3.35-4.77,6.35-4.77a13.11,13.11,0,0,1,4.59.71l.18,3.71a5.16,5.16,0,0,0-4.41-2.83c-1.42,0-2.83.71-2.83,2.3,0,3.71,8.83,4.77,8.83,10.24,0,3.88-3.53,5.65-7.06,5.65a11.63,11.63,0,0,1-6-1.41c0-.71-.17-1.42-.17-1.95a11.76,11.76,0,0,1,.35-2.47,5.88,5.88,0,0,0,5.47,4.06c1.77,0,3.36-.88,3.36-3Zm18.36,4.42a2.14,2.14,0,0,0,.88-1.77V34.28a26.87,26.87,0,0,0-4.06-.18,28.26,28.26,0,0,0-4.24.18v7.06a2.12,2.12,0,0,0,.89,1.77H93.22a2.14,2.14,0,0,0,.88-1.77V25.63a2.42,2.42,0,0,0-.88-1.77h5.65A2.39,2.39,0,0,0,98,25.63v6.53c1.06,0,2.48.18,4.24.18,1.59,0,3-.18,4.06-.18V25.63a2.42,2.42,0,0,0-.88-1.77h5.65a1.94,1.94,0,0,0-.88,1.77V41.34a1.77,1.77,0,0,0,.88,1.77Z" fill="#14427a" fill-rule="evenodd"/><path d="M14.3,68a.91.91,0,0,0,.35-.71,1.85,1.85,0,0,1-.17-.7s-1.59-4.24-1.77-4.77H5.65c-.18.53-1.94,4.77-1.94,4.77-.18.53-.36.7-.36.88,0,.35.36.35.53.53H0a5.25,5.25,0,0,0,1.41-1.41L7.59,50.17A.18.18,0,0,0,7.77,50a1.19,1.19,0,0,0-.71-1.06h5l6.35,17.66A3.6,3.6,0,0,0,19.77,68ZM9.18,52.46,6.36,59.88A13.78,13.78,0,0,0,9,60.05a18.91,18.91,0,0,0,3-.17L9.18,52.46ZM20.66,68a1.86,1.86,0,0,0,1.06-1.77V50.52a1.61,1.61,0,0,0-1.06-1.59h6a1.61,1.61,0,0,0-1.06,1.59V66.23A1.86,1.86,0,0,0,26.66,68ZM35.49,50.52H34.6v6.71h.89c2.12,0,3.7-1.06,3.7-3.53,0-2.3-1.58-3.18-3.7-3.18ZM45.73,68.18a9.18,9.18,0,0,1-2.3-.18c-1.23-.53-3.18-3.36-3.88-4.59C38.49,61.64,37.08,59,34.6,59v7.24A1.79,1.79,0,0,0,35.49,68H29.66a1.79,1.79,0,0,0,.88-1.77V50.52c0-.53-.17-1.41-.88-1.59h7.06c3,0,6.71,1.06,6.71,4.77a4.8,4.8,0,0,1-4.77,4.59c4.06.18,6.54,9.36,10.6,9.36a11.5,11.5,0,0,1-3.53.53ZM69.56,50.7,63.73,68a2.09,2.09,0,0,1-1.23-.35,18.54,18.54,0,0,1-1.77-3.71l-2.65-6.71L54.2,68H52.44L45.9,50.7a2.76,2.76,0,0,0-1.41-1.77h5.65a.91.91,0,0,0-.35.71,1.08,1.08,0,0,0,.17.7L54.2,61.82l4.41-12.89,5,12.36L67.44,50c0-.18.18-.35.18-.53,0-.35-.18-.35-.35-.53H71a2.82,2.82,0,0,0-1.41,1.77Zm6.89,1.76-2.83,7.42a13.89,13.89,0,0,0,2.65.17,15.71,15.71,0,0,0,2.82-.17l-2.64-7.42ZM81.39,68c.35-.18.35-.35.35-.71a1.79,1.79,0,0,0-.17-.7s-1.42-4.24-1.77-4.77H72.91c-.17.53-1.94,4.77-1.94,4.77-.17.53-.35.7-.35.88,0,.35.35.35.53.53H67.27a3.18,3.18,0,0,0,1.23-1.41l6.36-16.42L75,50a1.2,1.2,0,0,0-.7-1.06h4.94l6.36,17.66A3.6,3.6,0,0,0,87,68Zm17.3-17.13-4.41,8v7.41A2,2,0,0,0,95,68H89.51a2,2,0,0,0,.71-1.77V58.82l-3.89-6.36c-.35-.53-1.94-3.35-4.06-3.35a14.69,14.69,0,0,1,3.36-.53c1.94,0,2.82.18,3.88,1.94l3.71,5.83c.35-.53,3.18-5.65,3.18-5.65a3.11,3.11,0,0,0,.53-1.24c0-.18,0-.35-.36-.53h4.06a6.88,6.88,0,0,0-1.94,1.94Zm10.59,12.72c0-3.54-8.47-4.42-8.47-10.24,0-3.54,3.35-4.77,6.36-4.77a13.41,13.41,0,0,1,4.59.7l.17,3.71a5.14,5.14,0,0,0-4.41-2.82c-1.41,0-2.83.7-2.83,2.29,0,3.71,8.66,4.77,8.66,10.24,0,4.06-3.36,5.65-6.89,5.65a11.59,11.59,0,0,1-6-1.41c0-.71-.18-1.24-.18-1.94,0-.89.18-1.59.18-2.3,1.06,2.12,3,3.89,5.47,3.89,1.94,0,3.35-.89,3.35-3Z" fill="#14427a" fill-rule="evenodd"/><path d="M161,10.62c-3.35,3.18-10.41,6-13.77,7.24-4.76,1.76-6.88,2.47-9.53,3.35-3,.89-9,2.83-9,2.83a138.76,138.76,0,0,0,21.19,4.76A64,64,0,0,0,160.48,24c3.53-1.77,5.12-2.83,6.36-4.06a5,5,0,0,0,1.94-3.18c0-.18.18-.35.18-.71v-.35a.54.54,0,0,1-.18-.35,1.73,1.73,0,0,0-.18-.71,3,3,0,0,0-1-1.59A10.68,10.68,0,0,0,163.66,11a21,21,0,0,0-2.47-.7l-.18.35Z" fill="#14427a" fill-rule="evenodd"/><path d="M169,15.92a.85.85,0,0,0-.18-.53c0-.36-.18-.53-.35-.89a6.36,6.36,0,0,1-.88-1.05,4.44,4.44,0,0,1-1.06-.89,17.44,17.44,0,0,0-5.83-1.94,67.5,67.5,0,0,0-6.89-.35c-1.05,0-8.29,0-10.06.17-8.12.18-18.18.18-20.83.18-27,0-38.84-.53-51.91-3.18a140.71,140.71,0,0,1-17.3-4.23c9.89-.36,67.27-2.83,77.68-3C138.24,0,143-.15,146.89.2a25.57,25.57,0,0,1,6.18.71,35,35,0,0,1,5.12,1.24c2.29.88,4.41,2.11,5.3,3.53a2,2,0,0,1,.7.7A7.38,7.38,0,0,0,165.25,8a32.38,32.38,0,0,1,2.3,4.06,6.13,6.13,0,0,1,.7,1.59,1.15,1.15,0,0,1,.35.88c.18.53.18,1.06.36,1.24v.18Z" fill="#e21b28" fill-rule="evenodd"/></g></g></svg>