<svg xmlns="http://www.w3.org/2000/svg" xmlns:xlink="http://www.w3.org/1999/xlink" viewBox="0 0 92.51 55.31"><defs><style>.cls-1{fill:none;}.cls-2{clip-path:url(#clip-path);}.cls-3,.cls-4{fill:#242421;}.cls-3{fill-rule:evenodd;}</style><clipPath id="clip-path" transform="translate(0 -0.05)"><rect class="cls-1" width="92.59" height="55.37"/></clipPath></defs><title>logo</title><g id="Layer_2" data-name="Layer 2"><g id="Logos"><g class="cls-2"><g class="cls-2"><path class="cls-3" d="M83.62,43.92C73.49,51.39,58.8,55.37,46.16,55.37A67.78,67.78,0,0,1,.41,37.92c-.95-.86-.1-2,1-1.37A92.08,92.08,0,0,0,47.23,48.7a91,91,0,0,0,34.91-7.15c1.71-.72,3.15,1.13,1.48,2.37" transform="translate(0 -0.05)"/><path class="cls-3" d="M87.83,39.11c-1.3-1.66-8.56-.79-11.83-.4-1,.12-1.14-.74-.25-1.37,5.8-4.07,15.3-2.89,16.4-1.53s-.29,10.9-5.72,15.44c-.84.7-1.63.33-1.26-.59,1.22-3.06,4-9.89,2.66-11.55" transform="translate(0 -0.05)"/><path class="cls-4" d="M26.07,20.13a8.55,8.55,0,0,0,.35,2.75,14.19,14.19,0,0,0,1,2.21,1.36,1.36,0,0,1,.22.7,1.19,1.19,0,0,1-.59.91L25.1,28a1.56,1.56,0,0,1-.81.27,1.26,1.26,0,0,1-.91-.43,7,7,0,0,1-1.11-1.43c-.3-.52-.62-1.12-.94-1.8a11.36,11.36,0,0,1-9,4.25,8.41,8.41,0,0,1-6.14-2.2,7.89,7.89,0,0,1-2.26-5.92,7.92,7.92,0,0,1,2.8-6.33A11.17,11.17,0,0,1,14.22,12a23.36,23.36,0,0,1,3.26.25c1.13.16,2.31.38,3.53.67V10.66c0-2.33-.49-4-1.46-4.93s-2.63-1.42-5-1.42a14.18,14.18,0,0,0-3.31.4,23.59,23.59,0,0,0-3.31,1,7.62,7.62,0,0,1-1.08.4,1.93,1.93,0,0,1-.49.08c-.43,0-.64-.32-.64-1V3.77a2.09,2.09,0,0,1,.21-1.08,2.24,2.24,0,0,1,.87-.64A19.39,19.39,0,0,1,10.67.65a18.6,18.6,0,0,1,4.79-.6q5.49,0,8.05,2.51c1.7,1.67,2.56,4.19,2.56,7.56v10M13.58,24.82a9.8,9.8,0,0,0,3.17-.57,6.75,6.75,0,0,0,2.91-2,5,5,0,0,0,1.05-2,10.21,10.21,0,0,0,.3-2.66V16.37a26.35,26.35,0,0,0-2.83-.52,23.94,23.94,0,0,0-2.88-.18,7.11,7.11,0,0,0-4.57,1.23,4.33,4.33,0,0,0-1.51,3.56,4.31,4.31,0,0,0,1.13,3.25,4.41,4.41,0,0,0,3.23,1.11m24.71,3.33a1.91,1.91,0,0,1-1.19-.29,2.36,2.36,0,0,1-.64-1.21L29.24,2.85A5.51,5.51,0,0,1,29,1.62a.67.67,0,0,1,.76-.76h3a1.88,1.88,0,0,1,1.21.3,2.52,2.52,0,0,1,.62,1.21l5.17,20.35L44.53,2.37a2.16,2.16,0,0,1,.59-1.21,2,2,0,0,1,1.24-.3h2.48a2,2,0,0,1,1.23.3,2.15,2.15,0,0,1,.6,1.21L55.51,23,60.84,2.37a2.61,2.61,0,0,1,.62-1.21,1.88,1.88,0,0,1,1.21-.3h2.85a.67.67,0,0,1,.76.76,2.24,2.24,0,0,1-.06.48,5,5,0,0,1-.21.75l-7.43,23.8a2.43,2.43,0,0,1-.65,1.21,1.88,1.88,0,0,1-1.18.29H54.11a1.88,1.88,0,0,1-1.24-.32,2.3,2.3,0,0,1-.59-1.24L47.49,6.78,42.75,26.59a2.3,2.3,0,0,1-.59,1.24,1.86,1.86,0,0,1-1.24.32ZM77.8,29a20.75,20.75,0,0,1-4.74-.54,13.65,13.65,0,0,1-3.55-1.24,2,2,0,0,1-.94-.86,2,2,0,0,1-.19-.86V23.9c0-.64.23-1,.7-1a1.68,1.68,0,0,1,.56.11c.2.07.46.18.78.32a16,16,0,0,0,3.39,1.08,18.2,18.2,0,0,0,3.66.38,8.24,8.24,0,0,0,4.5-1,3.26,3.26,0,0,0,1.59-2.9,3,3,0,0,0-.84-2.16,7.93,7.93,0,0,0-3.09-1.61l-4.47-1.4a9.62,9.62,0,0,1-4.93-3.12A7.33,7.33,0,0,1,68.7,8.13a6.93,6.93,0,0,1,.83-3.42,8.36,8.36,0,0,1,2.21-2.53A9.79,9.79,0,0,1,74.94.59,13.68,13.68,0,0,1,78.82.05a16.24,16.24,0,0,1,2.07.14c.7.09,1.37.21,2,.35A16.87,16.87,0,0,1,84.63,1a8.13,8.13,0,0,1,1.3.54,2.78,2.78,0,0,1,.91.76,1.71,1.71,0,0,1,.27,1V4.79c0,.65-.23,1-.7,1a3.06,3.06,0,0,1-1.18-.38A14.34,14.34,0,0,0,79.3,4.2a8.14,8.14,0,0,0-4.09.86,3,3,0,0,0-1.45,2.75A2.93,2.93,0,0,0,74.67,10a9.26,9.26,0,0,0,3.4,1.69l4.36,1.4a9.45,9.45,0,0,1,4.76,3,7,7,0,0,1,1.43,4.31,7.76,7.76,0,0,1-.81,3.58,8.22,8.22,0,0,1-2.23,2.72,10.37,10.37,0,0,1-3.42,1.72A15.43,15.43,0,0,1,77.8,29" transform="translate(0 -0.05)"/></g></g></g></g></svg>