<svg xmlns="http://www.w3.org/2000/svg" width="82" height="22" viewBox="0 0 82 22">
    <g fill="none" fill-rule="evenodd">
        <path fill="#000" d="M9.703 8.96c0 .42.043.753.127 1.002.086.25.207.518.364.806a.523.523 0 0 1 .078.257c0 .116-.072.228-.216.332l-.706.473a.56.56 0 0 1-.294.098.465.465 0 0 1-.333-.157 2.575 2.575 0 0 1-.402-.521 8.429 8.429 0 0 1-.343-.658c-.876 1.035-1.974 1.553-3.295 1.553-.941 0-1.686-.268-2.235-.806-.55-.538-.823-1.26-.823-2.164 0-.956.339-1.727 1.019-2.31.679-.584 1.595-.875 2.745-.875.379 0 .774.03 1.186.088.412.06.84.141 1.284.246v-.826c0-.853-.175-1.452-.528-1.799-.354-.347-.96-.52-1.824-.52a5.19 5.19 0 0 0-1.206.146 8.637 8.637 0 0 0-1.206.383c-.183.08-.315.128-.392.148a.817.817 0 0 1-.177.03c-.157 0-.235-.119-.235-.355v-.55c0-.183.026-.314.078-.393.053-.079.157-.157.313-.236a7.425 7.425 0 0 1 1.413-.512 6.894 6.894 0 0 1 1.745-.216c1.334 0 2.311.305 2.932.914.62.61.931 1.532.931 2.764v3.657zm-4.549 1.71c.366 0 .75-.07 1.157-.206a2.442 2.442 0 0 0 1.058-.718c.184-.21.31-.45.383-.719.072-.268.107-.592.107-.973v-.471a9.651 9.651 0 0 0-1.028-.187 8.2 8.2 0 0 0-1.05-.069c-.745 0-1.3.151-1.666.452-.366.301-.55.734-.55 1.298 0 .525.138.922.412 1.19.275.269.666.402 1.177.402zm9 1.219c-.195 0-.34-.036-.43-.108-.093-.072-.17-.22-.236-.442L10.86 2.647c-.066-.223-.098-.374-.098-.452 0-.184.092-.276.274-.276h1.1c.208 0 .354.036.44.108.086.072.16.22.225.442l1.883 7.434 1.746-7.434c.051-.222.124-.37.215-.442.09-.072.242-.108.451-.108h.902c.21 0 .36.036.45.108.092.072.165.22.217.442l1.765 7.533 1.941-7.533c.065-.222.14-.37.226-.442.084-.072.232-.108.441-.108h1.04c.182 0 .274.092.274.276a.916.916 0 0 1-.02.177c-.014.065-.04.157-.079.275l-2.705 8.692c-.066.223-.145.37-.235.442-.092.072-.236.108-.432.108h-.961c-.209 0-.36-.039-.45-.118-.092-.079-.165-.23-.216-.452l-1.746-7.237-1.725 7.237c-.053.222-.126.373-.216.452-.092.08-.243.118-.45.118h-.962zm14.394.295a7.595 7.595 0 0 1-1.726-.197c-.562-.13-.993-.281-1.294-.452-.183-.105-.298-.21-.343-.315a.783.783 0 0 1-.068-.315v-.57c0-.236.084-.353.254-.353a.58.58 0 0 1 .206.039c.071.027.166.066.284.118.38.17.791.301 1.236.392.444.093.889.138 1.333.138.706 0 1.253-.123 1.638-.373a1.19 1.19 0 0 0 .579-1.062c0-.314-.102-.576-.305-.786-.202-.21-.578-.406-1.128-.59l-1.627-.512c-.823-.26-1.421-.642-1.794-1.14a2.668 2.668 0 0 1-.559-1.633 2.5 2.5 0 0 1 .304-1.248c.202-.36.47-.668.804-.924a3.545 3.545 0 0 1 1.166-.58 4.96 4.96 0 0 1 1.413-.196c.248 0 .5.016.755.049a7.076 7.076 0 0 1 1.363.304c.196.067.353.132.47.197.157.093.268.184.333.275a.627.627 0 0 1 .099.374v.53c0 .237-.085.354-.256.354-.09 0-.234-.045-.431-.137-.64-.288-1.36-.433-2.156-.433-.642 0-1.138.106-1.492.316-.352.209-.528.543-.528 1.003 0 .313.11.58.332.796.222.215.634.422 1.236.619l1.588.51c.81.263 1.39.624 1.736 1.082.346.46.52.984.52 1.573a2.84 2.84 0 0 1-1.108 2.302 3.64 3.64 0 0 1-1.246.628 5.527 5.527 0 0 1-1.588.217z"/>
        <path fill="#F59D0F" d="M30.593 17.528c-3.706 2.874-9.077 4.403-13.704 4.403-6.483 0-12.321-2.519-16.74-6.71-.346-.33-.036-.78.38-.525 4.766 2.915 10.662 4.67 16.75 4.67 4.106 0 8.62-.895 12.775-2.747.626-.279 1.152.434.539.91"/>
        <path fill="#F59D0F" d="M31.55 15.548c-.485-.63-3.208-.298-4.432-.15-.37.044-.427-.284-.093-.521 2.172-1.55 5.731-1.103 6.145-.584.416.522-.11 4.145-2.145 5.876-.313.265-.611.124-.473-.228.458-1.162 1.484-3.762.998-4.393"/>
        <path fill="#000" d="M39.394 2.121c-.377 0-.675-.093-.893-.28-.217-.188-.325-.447-.325-.78s.108-.593.325-.78c.218-.188.516-.281.893-.281s.674.093.893.28c.216.188.325.448.325.78 0 .334-.109.593-.325.78-.219.188-.516.281-.893.281zm-.634 9.25c-.252 0-.378-.114-.378-.343V3.775c0-.228.126-.343.378-.343h1.269c.252 0 .378.115.378.343v7.253c0 .23-.126.343-.378.343h-1.27zM44.83 11.371c-.798 0-1.537-.13-2.213-.391-.163-.06-.266-.123-.311-.189-.046-.065-.069-.173-.069-.323v-.543c0-.201.071-.302.213-.302.07 0 .212.03.424.09.718.202 1.365.303 1.94.303.506 0 .875-.079 1.108-.234.232-.156.348-.395.348-.716a.71.71 0 0 0-.212-.535c-.142-.136-.404-.273-.789-.415l-1.258-.482c-1.132-.431-1.697-1.135-1.697-2.11 0-.703.262-1.258.788-1.665.525-.406 1.227-.61 2.107-.61.627 0 1.258.106 1.896.316.151.05.251.108.303.174.05.065.075.178.075.338v.528c0 .11-.018.19-.052.234-.036.045-.1.068-.19.068a2.23 2.23 0 0 1-.38-.076c-.636-.15-1.152-.226-1.546-.226-.465 0-.806.068-1.024.204-.217.135-.325.349-.325.64 0 .221.078.4.235.536.157.135.437.283.842.444l1.167.452c.606.231 1.043.507 1.31.829.269.322.403.728.403 1.22 0 .753-.273 1.35-.818 1.786-.547.437-1.305.655-2.275.655M53.15 11.371c-.235 0-.354-.112-.354-.338V.338c0-.226.119-.338.354-.338h1.189c.235 0 .353.112.353.338v3.98c.997-.666 2.003-.999 3.021-.999.782 0 1.376.197 1.784.592.407.394.61.966.61 1.714v5.408c0 .226-.118.338-.354.338h-1.188c-.236 0-.354-.112-.354-.338v-4.84c0-.502-.107-.868-.321-1.1-.214-.23-.557-.345-1.029-.345-.706 0-1.43.226-2.17.676v5.61c0 .225-.117.337-.352.337h-1.19zM65.386 11.371c-1.149 0-2.045-.359-2.69-1.077-.643-.718-.965-1.715-.965-2.991 0-1.277.322-2.27.965-2.984.645-.713 1.541-1.07 2.69-1.07 1.15 0 2.046.357 2.69 1.07.643.713.965 1.707.965 2.984 0 1.276-.322 2.273-.965 2.991-.644.718-1.54 1.077-2.69 1.077m0-1.4c1.248 0 1.872-.89 1.872-2.668 0-1.768-.624-2.653-1.872-2.653-1.248 0-1.872.885-1.872 2.653 0 1.778.624 2.667 1.872 2.667M73.407 11.371c-.231 0-.377-.111-.437-.335l-2.229-7.245a1.33 1.33 0 0 1-.075-.319c0-.148.095-.223.286-.223h1.22c.21 0 .34.102.392.304l1.43 5.888 1.461-5.873c.03-.127.078-.213.144-.255a.507.507 0 0 1 .278-.064h.995c.129 0 .225.023.285.072.06.047.105.13.136.247l1.46 5.984 1.507-6c.05-.201.18-.303.392-.303h1.099c.19 0 .286.075.286.223 0 .053-.026.16-.076.32l-2.274 7.244c-.07.224-.215.335-.436.335h-1.055a.499.499 0 0 1-.286-.071c-.07-.049-.12-.136-.15-.264l-1.431-5.761-1.431 5.761c-.03.128-.08.215-.15.264a.497.497 0 0 1-.287.071h-1.054z"/>
    </g>
</svg>
